<?xml version="1.0" encoding="UTF-8" standalone="no"?>
<!-- Created with Inkscape (http://www.inkscape.org/) -->

<svg
   xmlns:dc="http://purl.org/dc/elements/1.1/"
   xmlns:cc="http://creativecommons.org/ns#"
   xmlns:rdf="http://www.w3.org/1999/02/22-rdf-syntax-ns#"
   xmlns:svg="http://www.w3.org/2000/svg"
   xmlns="http://www.w3.org/2000/svg"
   xmlns:sodipodi="http://sodipodi.sourceforge.net/DTD/sodipodi-0.dtd"
   xmlns:inkscape="http://www.inkscape.org/namespaces/inkscape"
   width="27.78125mm"
   height="27.781252mm"
   viewBox="0 0 27.781249 27.781251"
   version="1.1"
   id="svg5379"
   inkscape:version="0.92.2 (5c3e80d, 2017-08-06)"
   sodipodi:docname="Icona Local Server for Construct 3.svg">
  <defs
     id="defs5373" />
  <sodipodi:namedview
     id="base"
     pagecolor="#ffffff"
     bordercolor="#666666"
     borderopacity="1.0"
     inkscape:pageopacity="0.0"
     inkscape:pageshadow="2"
     inkscape:zoom="3.959798"
     inkscape:cx="35.213966"
     inkscape:cy="85.039827"
     inkscape:document-units="mm"
     inkscape:current-layer="layer1"
     showgrid="false"
     fit-margin-top="0"
     fit-margin-left="0"
     fit-margin-right="0"
     fit-margin-bottom="0"
     inkscape:window-width="1920"
     inkscape:window-height="1017"
     inkscape:window-x="-8"
     inkscape:window-y="-8"
     inkscape:window-maximized="1" />
  <metadata
     id="metadata5376">
    <rdf:RDF>
      <cc:Work
         rdf:about="">
        <dc:format>image/svg+xml</dc:format>
        <dc:type
           rdf:resource="http://purl.org/dc/dcmitype/StillImage" />
        <dc:title />
      </cc:Work>
    </rdf:RDF>
  </metadata>
  <g
     inkscape:label="Livello 1"
     inkscape:groupmode="layer"
     id="layer1"
     transform="translate(58.475941,109.14855)">
    <g
       id="logo-8"
       transform="matrix(0.26458333,0,0,0.26458333,-356.40487,-263.34543)" />
    <g
       id="g1277"
       transform="matrix(0.26458333,0,0,0.26458333,-28.968509,-75.195429)" />
    <g
       id="g1279"
       transform="matrix(0.26458333,0,0,0.26458333,-28.968509,-75.195429)" />
    <g
       id="g1281"
       transform="matrix(0.26458333,0,0,0.26458333,-28.968509,-75.195429)" />
    <g
       id="g1283"
       transform="matrix(0.26458333,0,0,0.26458333,-28.968509,-75.195429)" />
    <g
       id="g1285"
       transform="matrix(0.26458333,0,0,0.26458333,-28.968509,-75.195429)" />
    <g
       id="g1287"
       transform="matrix(0.26458333,0,0,0.26458333,-28.968509,-75.195429)" />
    <g
       id="g1289"
       transform="matrix(0.26458333,0,0,0.26458333,-28.968509,-75.195429)" />
    <g
       id="g1291"
       transform="matrix(0.26458333,0,0,0.26458333,-28.968509,-75.195429)" />
    <g
       id="g1293"
       transform="matrix(0.26458333,0,0,0.26458333,-28.968509,-75.195429)" />
    <g
       id="g1295"
       transform="matrix(0.26458333,0,0,0.26458333,-28.968509,-75.195429)" />
    <g
       id="g1297"
       transform="matrix(0.26458333,0,0,0.26458333,-28.968509,-75.195429)" />
    <g
       id="g1299"
       transform="matrix(0.26458333,0,0,0.26458333,-28.968509,-75.195429)" />
    <g
       id="g1301"
       transform="matrix(0.26458333,0,0,0.26458333,-28.968509,-75.195429)" />
    <g
       id="g1303"
       transform="matrix(0.26458333,0,0,0.26458333,-28.968509,-75.195429)" />
    <g
       id="g1305"
       transform="matrix(0.26458333,0,0,0.26458333,-28.968509,-75.195429)" />
    <g
       id="g917">
      <path
         transform="matrix(0.26458333,0,0,0.26458333,-58.475941,-109.14855)"
         id="path894"
         d="M 50.048828 4.4707031 C 46.905411 4.4707031 43.930464 4.5820973 41.126953 4.7890625 C 38.323442 4.9960277 35.691446 5.298724 33.234375 5.6855469 C 30.777304 6.0723697 28.496675 6.5424582 26.392578 7.0820312 C 24.288481 7.6216043 22.361775 8.2312686 20.617188 8.8964844 C 18.8726 9.5617001 17.310185 10.283124 15.931641 11.046875 C 14.553096 11.810626 13.357529 12.615993 12.351562 13.451172 C 11.345596 14.286351 10.529198 15.151751 9.9023438 16.03125 C 9.2754892 16.910749 8.8388643 17.80446 8.5976562 18.701172 C 8.4558862 18.946841 8.3535156 19.217119 8.3535156 19.521484 L 8.3535156 20.357422 L 8.3535156 40.423828 L 8.3535156 41.259766 L 8.3535156 60.490234 L 8.3535156 61.326172 L 8.3535156 81.392578 C 8.3535156 81.661794 8.4250986 81.914847 8.546875 82.140625 C 8.7843309 83.150832 9.2395992 84.109776 9.8867188 85.015625 C 10.533838 85.921474 11.371941 86.773883 12.371094 87.574219 C 13.370246 88.374554 14.530664 89.122741 15.824219 89.816406 C 17.117773 90.510071 18.543893 91.15049 20.074219 91.736328 C 23.13487 92.908005 26.611487 93.862269 30.273438 94.595703 C 33.935388 95.329137 37.783735 95.841011 41.585938 96.126953 C 41.62755 96.130306 41.671165 96.132812 41.712891 96.132812 C 42.145686 96.132812 42.544793 95.964246 42.84375 95.6875 C 43.142707 95.410754 43.340524 95.02572 43.373047 94.585938 C 43.407252 94.125251 43.252721 93.693545 42.974609 93.369141 C 42.696498 93.044737 42.295422 92.827247 41.835938 92.792969 C 37.201493 92.444319 33.051149 91.828078 29.419922 91.029297 C 25.788695 90.230516 22.676918 89.249172 20.121094 88.166016 C 18.843182 87.624437 17.704511 87.058156 16.708984 86.476562 C 15.713458 85.894969 14.860368 85.298154 14.15625 84.697266 C 13.452132 84.096377 12.895873 83.49009 12.492188 82.890625 C 12.088502 82.29116 11.838371 81.698415 11.744141 81.121094 C 11.730912 81.045806 11.711639 80.974268 11.689453 80.902344 L 11.689453 66.832031 C 11.736092 66.875647 11.795372 66.917473 11.84375 66.960938 C 12.207341 67.280345 12.577187 67.598574 12.994141 67.90625 C 14.56439 69.097682 16.527263 70.222972 18.873047 71.240234 C 21.21883 72.257497 23.947524 73.1671 27.048828 73.927734 C 30.150132 74.688369 33.624127 75.30111 37.460938 75.722656 C 41.297748 76.144203 45.496524 76.375 50.048828 76.375 C 50.509978 76.375 50.926849 76.187222 51.228516 75.884766 C 51.530182 75.582309 51.716797 75.16548 51.716797 74.703125 C 51.716797 74.240766 51.53039 73.821987 51.228516 73.519531 C 50.926641 73.217075 50.509146 73.03125 50.048828 73.03125 C 48.669546 73.03125 47.320056 73.004162 45.994141 72.957031 C 45.183579 72.926795 44.399924 72.874878 43.609375 72.828125 C 43.120724 72.799401 42.617048 72.783272 42.136719 72.748047 C 41.085999 72.672759 40.065669 72.57401 39.056641 72.46875 C 38.86653 72.448341 38.668946 72.434132 38.480469 72.414062 C 37.324674 72.286957 36.19899 72.141008 35.101562 71.980469 C 35.073216 71.977131 35.043934 71.974041 35.015625 71.96875 C 32.192847 71.550702 29.570085 71.023011 27.179688 70.410156 C 24.78929 69.797302 22.632082 69.099294 20.738281 68.341797 C 20.71825 68.334994 20.697237 68.326674 20.677734 68.318359 C 19.978915 68.037427 19.322977 67.747132 18.699219 67.451172 C 18.627483 67.415644 18.552204 67.382692 18.480469 67.347656 C 17.920078 67.076778 17.401309 66.798247 16.904297 66.515625 C 16.787547 66.448727 16.664167 66.383014 16.550781 66.314453 C 16.1188 66.060242 15.724585 65.801856 15.347656 65.541016 C 15.204261 65.440669 15.054754 65.340619 14.917969 65.240234 C 14.599468 65.00443 14.314536 64.766452 14.041016 64.527344 C 13.892556 64.395249 13.742498 64.264911 13.607422 64.132812 C 13.383938 63.915414 13.187086 63.697551 13.001953 63.478516 C 12.871824 63.324689 12.746779 63.167514 12.636719 63.013672 C 12.48996 62.80799 12.365365 62.602144 12.251953 62.396484 C 12.161887 62.230941 12.082081 62.065934 12.013672 61.900391 C 11.931996 61.698035 11.867027 61.495585 11.820312 61.294922 C 11.756968 61.024043 11.6875 60.75192 11.6875 60.484375 L 11.6875 46.761719 C 11.734139 46.805334 11.793419 46.845207 11.841797 46.888672 C 12.205387 47.20808 12.57523 47.528257 12.992188 47.835938 C 14.562852 49.028623 16.527029 50.153907 18.873047 51.171875 C 21.219064 52.189843 23.94742 53.10038 27.048828 53.861328 C 30.150236 54.622276 33.6241 55.234625 37.460938 55.65625 C 41.297775 56.077875 45.496523 56.308594 50.048828 56.308594 C 54.581951 56.308594 58.766506 56.080364 62.589844 55.662109 C 66.413181 55.243855 69.876592 54.63585 72.970703 53.880859 C 76.064814 53.125869 78.789322 52.223098 81.134766 51.212891 C 83.48021 50.202683 85.446102 49.084296 87.023438 47.900391 C 87.527154 47.532491 87.981234 47.153846 88.408203 46.767578 L 88.410156 46.767578 L 88.410156 52.964844 C 88.410156 53.427203 88.596771 53.845981 88.898438 54.148438 C 89.200104 54.450894 89.616975 54.636719 90.078125 54.636719 C 90.539278 54.636719 90.956145 54.450894 91.257812 54.148438 C 91.55948 53.845981 91.744141 53.427203 91.744141 52.964844 L 91.744141 41.259766 L 91.744141 40.423828 L 91.744141 20.357422 L 91.744141 19.521484 C 91.744141 19.217232 91.642098 18.946992 91.501953 18.701172 C 91.260536 17.80446 90.824277 16.910749 90.197266 16.03125 C 89.570254 15.151751 88.752165 14.286351 87.746094 13.451172 C 86.740023 12.615993 85.546565 11.810626 84.167969 11.046875 C 82.789372 10.283124 81.225056 9.5617001 79.480469 8.8964844 C 77.735881 8.2312686 75.811075 7.6216043 73.707031 7.0820312 C 71.602987 6.5424582 69.320247 6.0723697 66.863281 5.6855469 C 64.406315 5.298724 61.774057 4.9960277 58.970703 4.7890625 C 56.167349 4.5820973 53.192035 4.4707031 50.048828 4.4707031 z M 50.048828 7.8164062 C 52.874734 7.8164062 55.595136 7.9190402 58.189453 8.1113281 C 60.78377 8.3036161 63.252107 8.5852835 65.580078 8.9414062 C 67.90805 9.297529 70.094225 9.7291988 72.121094 10.220703 C 74.147962 10.712207 76.016022 11.262895 77.707031 11.861328 C 79.39804 12.459761 80.91203 13.104342 82.232422 13.78125 C 83.552814 14.458158 84.680685 15.167601 85.595703 15.894531 C 86.510722 16.621461 87.212612 17.366736 87.6875 18.115234 C 88.162388 18.863733 88.410156 19.615808 88.410156 20.357422 C 88.410156 21.099036 88.162388 21.851111 87.6875 22.599609 C 87.212612 23.348108 86.510722 24.093383 85.595703 24.820312 C 84.680685 25.547242 83.552814 26.256686 82.232422 26.933594 C 80.91203 27.610502 79.39804 28.255083 77.707031 28.853516 C 76.016022 29.451948 74.147962 30.004589 72.121094 30.496094 C 70.094225 30.987598 67.90805 31.417315 65.580078 31.773438 C 63.252107 32.12956 60.78377 32.411228 58.189453 32.603516 C 55.595136 32.795804 52.874734 32.898438 50.048828 32.898438 C 47.222923 32.898438 44.504473 32.795804 41.910156 32.603516 C 39.315839 32.411228 36.845549 32.12956 34.517578 31.773438 C 32.189607 31.417315 30.003431 30.987598 27.976562 30.496094 C 25.949694 30.004589 24.083587 29.451948 22.392578 28.853516 C 20.701569 28.255083 19.185627 27.610502 17.865234 26.933594 C 16.544842 26.256686 15.418925 25.547242 14.503906 24.820312 C 13.588888 24.093383 12.885044 23.348108 12.410156 22.599609 C 11.935268 21.851111 11.689453 21.099036 11.689453 20.357422 C 11.689453 19.615808 11.935268 18.863733 12.410156 18.115234 C 12.885044 17.366736 13.588888 16.621461 14.503906 15.894531 C 15.418925 15.167601 16.544842 14.458158 17.865234 13.78125 C 19.185627 13.104342 20.701569 12.459761 22.392578 11.861328 C 24.083587 11.262895 25.949694 10.712207 27.976562 10.220703 C 30.003431 9.7291988 32.189607 9.297529 34.517578 8.9414062 C 36.845549 8.5852835 39.315839 8.3036161 41.910156 8.1113281 C 44.504473 7.9190402 47.222923 7.8164062 50.048828 7.8164062 z M 11.6875 26.695312 C 11.887664 26.877486 12.117183 27.055893 12.333984 27.236328 C 12.455302 27.341445 12.566743 27.442752 12.691406 27.542969 C 12.691406 27.542969 12.693359 27.542969 12.693359 27.542969 C 13.193337 27.937268 13.733428 28.327755 14.318359 28.707031 C 14.44006 28.785645 14.576371 28.86317 14.703125 28.941406 C 15.193481 29.247548 15.71243 29.54557 16.257812 29.839844 C 16.459601 29.948694 16.660681 30.057102 16.869141 30.164062 C 17.477875 30.475118 18.11693 30.776038 18.789062 31.070312 C 18.899122 31.119068 18.99953 31.167978 19.111328 31.214844 C 19.893528 31.54782 20.723966 31.865884 21.587891 32.171875 C 21.826341 32.257292 22.077076 32.336394 22.322266 32.419922 C 23.009406 32.652363 23.719575 32.876099 24.455078 33.091797 C 24.720288 33.168521 24.980073 33.249006 25.251953 33.324219 C 26.227623 33.595211 27.235574 33.852414 28.292969 34.089844 C 28.438065 34.123859 28.595432 34.151846 28.742188 34.183594 C 29.674499 34.387688 30.640742 34.57639 31.634766 34.751953 C 31.971673 34.81201 32.314629 34.868899 32.658203 34.925781 C 33.603852 35.081347 34.577152 35.225041 35.576172 35.355469 C 35.833029 35.389107 36.077708 35.425573 36.337891 35.458984 C 37.578744 35.609447 38.864346 35.739172 40.183594 35.849609 C 40.508784 35.876066 40.847509 35.894498 41.177734 35.917969 C 42.233466 35.994882 43.311925 36.059258 44.416016 36.109375 C 44.817995 36.127895 45.218623 36.14689 45.628906 36.160156 C 47.068233 36.210084 48.532784 36.242188 50.048828 36.242188 C 51.564872 36.242188 53.029136 36.208232 54.466797 36.160156 C 54.875394 36.146928 55.276076 36.125665 55.679688 36.109375 C 56.783782 36.059447 57.86419 35.994844 58.919922 35.917969 C 59.250177 35.892646 59.585222 35.876217 59.912109 35.849609 C 61.231357 35.74091 62.51696 35.609485 63.757812 35.458984 C 64.018033 35.427614 64.262693 35.38888 64.519531 35.355469 C 65.518551 35.224999 66.490184 35.081343 67.4375 34.925781 C 67.781097 34.868899 68.124034 34.812199 68.460938 34.751953 C 69.454957 34.576394 70.421208 34.387616 71.353516 34.183594 C 71.500275 34.153358 71.657642 34.123482 71.802734 34.089844 C 72.860129 33.852489 73.868076 33.595097 74.84375 33.324219 C 75.115611 33.249006 75.375431 33.170411 75.640625 33.091797 C 76.376129 32.877876 77.0863 32.652363 77.773438 32.419922 C 78.018578 32.336394 78.269302 32.256914 78.507812 32.171875 C 79.371737 31.864221 80.203838 31.545968 80.984375 31.214844 C 81.096136 31.167978 81.196581 31.117179 81.306641 31.070312 C 81.978769 30.775887 82.617809 30.475118 83.226562 30.164062 C 83.435003 30.057102 83.637753 29.948694 83.837891 29.839844 C 84.383276 29.547308 84.902237 29.249135 85.392578 28.941406 C 85.519343 28.862792 85.655579 28.785267 85.777344 28.707031 C 86.362755 28.327453 86.903955 27.93929 87.404297 27.542969 C 87.529361 27.442433 87.639942 27.342723 87.761719 27.242188 C 87.978588 27.061526 88.208039 26.881543 88.408203 26.699219 L 88.408203 40.423828 C 88.408203 40.693044 88.338736 40.963477 88.275391 41.234375 C 88.228751 41.436693 88.163745 41.637477 88.082031 41.839844 C 88.015323 42.005387 87.933816 42.170394 87.84375 42.335938 C 87.731989 42.541619 87.607433 42.74747 87.458984 42.953125 C 87.348925 43.10699 87.223766 43.262174 87.09375 43.416016 C 86.908629 43.635077 86.711742 43.854882 86.488281 44.072266 C 86.353201 44.20436 86.204773 44.334695 86.054688 44.466797 C 85.781201 44.705928 85.496262 44.943932 85.177734 45.179688 C 85.040915 45.281697 84.89315 45.38016 84.748047 45.480469 C 84.371115 45.741294 83.978837 45.999703 83.546875 46.253906 C 83.433451 46.322505 83.311696 46.388218 83.193359 46.455078 C 82.696321 46.735973 82.17757 47.014537 81.617188 47.287109 C 81.545452 47.322637 81.469921 47.355589 81.396484 47.390625 C 80.771044 47.6866 80.116784 47.976895 79.417969 48.257812 C 79.397937 48.266127 79.377567 48.272935 79.357422 48.28125 C 77.463618 49.039584 75.306413 49.736754 72.916016 50.349609 C 70.525618 50.962464 67.902856 51.490994 65.080078 51.908203 C 65.051732 51.911544 65.022449 51.914631 64.994141 51.919922 C 63.896717 52.082177 62.771033 52.228054 61.615234 52.353516 C 61.426749 52.373925 61.229241 52.386181 61.039062 52.40625 C 60.030031 52.511585 59.009704 52.608671 57.958984 52.685547 C 57.478652 52.721074 56.975002 52.739383 56.486328 52.767578 C 55.695779 52.814331 54.912124 52.866399 54.101562 52.896484 C 52.778981 52.93821 51.426436 52.964844 50.048828 52.964844 C 48.671209 52.964844 47.320056 52.939709 45.994141 52.892578 C 45.183576 52.862342 44.39992 52.810425 43.609375 52.763672 C 43.120724 52.734947 42.617051 52.71679 42.136719 52.681641 C 41.085999 52.606352 40.065669 52.507604 39.056641 52.402344 C 38.86653 52.381934 38.668942 52.367726 38.480469 52.347656 C 37.324674 52.220551 36.198986 52.076547 35.101562 51.916016 C 35.073216 51.912671 35.043934 51.907635 35.015625 51.902344 C 32.192849 51.484298 29.570085 50.956605 27.179688 50.34375 C 24.78929 49.730895 22.632083 49.032887 20.738281 48.275391 C 20.71825 48.268587 20.697237 48.260268 20.677734 48.251953 C 19.978915 47.971059 19.322981 47.680725 18.699219 47.384766 C 18.627483 47.349238 18.552204 47.316286 18.480469 47.28125 C 17.920082 47.010371 17.401305 46.731837 16.904297 46.449219 C 16.787547 46.382321 16.664167 46.318561 16.550781 46.25 C 16.118796 45.995789 15.724585 45.73545 15.347656 45.474609 C 15.204261 45.374301 15.05475 45.274137 14.917969 45.173828 C 14.599468 44.938023 14.314536 44.701999 14.041016 44.462891 C 13.892556 44.330796 13.742495 44.198505 13.607422 44.066406 C 13.383938 43.849008 13.187093 43.631144 13.001953 43.412109 C 12.871862 43.258245 12.746779 43.103061 12.636719 42.949219 C 12.48996 42.743537 12.365365 42.537683 12.251953 42.332031 C 12.161887 42.166488 12.082081 41.99949 12.013672 41.833984 C 11.931996 41.631591 11.867027 41.431135 11.820312 41.230469 C 11.756968 40.95959 11.6875 40.685514 11.6875 40.417969 L 11.6875 26.695312 z "
         style="fill:#e6e6e6;fill-opacity:1;stroke:none;stroke-width:2.88983011;stroke-linejoin:round;stroke-miterlimit:4;stroke-dasharray:none;stroke-opacity:0" />
      <rect
         ry="1.1077745"
         rx="1.0433377"
         y="-109.08173"
         x="-58.375717"
         height="27.781252"
         width="27.78125"
         id="rect2944"
         style="fill:#ffffff;fill-opacity:1;stroke:none;stroke-width:0.49668363;stroke-linejoin:round;stroke-miterlimit:4;stroke-dasharray:none;stroke-opacity:1" />
      <g
         transform="translate(-0.43439154,-0.23375346)"
         id="g906">
        <path
           inkscape:connector-curvature="0"
           style="fill:#e6e6e6;fill-opacity:1;stroke:none;stroke-width:2.88983011;stroke-linejoin:round;stroke-miterlimit:4;stroke-dasharray:none;stroke-opacity:0"
           d="m 11.6875,26.695312 v 13.722657 c 0,0.267545 0.06947,0.541621 0.132812,0.8125 0.04672,0.200666 0.111684,0.401122 0.19336,0.603515 0.06841,0.165506 0.148215,0.332504 0.238281,0.498047 0.113412,0.205652 0.238007,0.411506 0.384766,0.617188 0.11006,0.153842 0.235143,0.309026 0.365234,0.46289 0.18514,0.219035 0.381985,0.436899 0.605469,0.654297 0.135073,0.132099 0.285134,0.26439 0.433594,0.396485 0.27352,0.239108 0.558452,0.475132 0.876953,0.710937 0.136781,0.100309 0.286292,0.200473 0.429687,0.300781 0.376929,0.260841 0.77114,0.52118 1.203125,0.775391 0.113386,0.06856 0.236766,0.132321 0.353516,0.199219 0.497008,0.282618 1.015785,0.561152 1.576172,0.832031 0.07174,0.03504 0.147014,0.06799 0.21875,0.103516 0.623762,0.295959 1.279696,0.586293 1.978515,0.867187 0.0195,0.0083 0.04052,0.01663 0.06055,0.02344 1.893802,0.757496 4.051009,1.455504 6.441407,2.068359 2.390397,0.612855 5.013161,1.140548 7.835937,1.558594 0.02831,0.0053 0.05759,0.01033 0.08594,0.01367 1.097424,0.160531 2.223112,0.304535 3.378907,0.43164 0.188473,0.02007 0.386061,0.03428 0.576172,0.05469 1.009028,0.10526 2.029358,0.204008 3.080078,0.279297 0.480332,0.03515 0.984005,0.05331 1.472656,0.08203 0.790545,0.04675 1.574201,0.09867 2.384766,0.128906 1.325915,0.04713 2.677068,0.07227 4.054687,0.07227 1.377608,0 2.730153,-0.02663 4.052734,-0.06836 0.810562,-0.03008 1.594217,-0.08215 2.384766,-0.128906 0.488674,-0.0282 0.992324,-0.0465 1.472656,-0.08203 1.05072,-0.07688 2.071047,-0.173962 3.080078,-0.279297 0.190179,-0.02007 0.387687,-0.03233 0.576172,-0.05273 1.155799,-0.125462 2.281483,-0.271339 3.378907,-0.433594 0.02831,-0.0053 0.05759,-0.0084 0.08594,-0.01172 2.822778,-0.417209 5.44554,-0.945739 7.835938,-1.558594 2.390397,-0.612855 4.547602,-1.310025 6.441406,-2.068359 0.02014,-0.0083 0.04051,-0.01512 0.06055,-0.02344 0.698815,-0.280917 1.353075,-0.571212 1.978515,-0.867187 0.07344,-0.03504 0.148968,-0.06799 0.220704,-0.103516 0.560382,-0.272572 1.079133,-0.551136 1.576171,-0.832031 0.118337,-0.06686 0.240092,-0.132573 0.353516,-0.201172 0.431962,-0.254203 0.82424,-0.512612 1.201172,-0.773437 0.145103,-0.100309 0.292868,-0.198772 0.429687,-0.300781 0.318528,-0.235756 0.603467,-0.47376 0.876954,-0.712891 0.150085,-0.132102 0.298513,-0.262437 0.433593,-0.394531 0.223461,-0.217384 0.420348,-0.437189 0.605469,-0.65625 0.130016,-0.153842 0.255175,-0.309026 0.365234,-0.462891 0.148449,-0.205655 0.273005,-0.411506 0.384766,-0.617187 0.09007,-0.165544 0.171573,-0.330551 0.238281,-0.496094 0.08171,-0.202367 0.14672,-0.403151 0.19336,-0.605469 0.06334,-0.270898 0.132812,-0.541331 0.132812,-0.810547 V 26.699219 c -0.200164,0.182324 -0.429615,0.362307 -0.646484,0.542969 -0.121777,0.100535 -0.232358,0.200245 -0.357422,0.300781 -0.500342,0.396321 -1.041542,0.784484 -1.626953,1.164062 -0.121765,0.07824 -0.258001,0.155761 -0.384766,0.234375 -0.490341,0.307729 -1.009302,0.605902 -1.554687,0.898438 -0.200138,0.10885 -0.402888,0.217258 -0.611329,0.324218 -0.608753,0.311056 -1.247793,0.611825 -1.919921,0.90625 -0.11006,0.04687 -0.210505,0.09767 -0.322266,0.144532 -0.780537,0.331124 -1.612638,0.649377 -2.476563,0.957031 -0.23851,0.08504 -0.489234,0.164519 -0.734374,0.248047 -0.687138,0.232441 -1.397309,0.457954 -2.132813,0.671875 -0.265194,0.07861 -0.525014,0.157209 -0.796875,0.232422 -0.975674,0.270878 -1.983621,0.52827 -3.041016,0.765625 -0.145092,0.03364 -0.302459,0.06351 -0.449218,0.09375 -0.932308,0.204022 -1.898559,0.3928 -2.892578,0.568359 -0.336904,0.06025 -0.679841,0.116946 -1.023438,0.173828 -0.947316,0.155562 -1.918949,0.299218 -2.917969,0.429688 -0.256838,0.03341 -0.501498,0.07214 -0.761719,0.103515 -1.240852,0.150501 -2.526455,0.281926 -3.845703,0.390625 -0.326887,0.02661 -0.661932,0.04304 -0.992187,0.06836 -1.055732,0.07688 -2.13614,0.141478 -3.240234,0.191406 -0.403612,0.01629 -0.804294,0.03755 -1.212891,0.05078 -1.437661,0.04808 -2.901925,0.08203 -4.417969,0.08203 -1.516044,0 -2.980595,-0.0321 -4.419922,-0.08203 -0.410283,-0.01327 -0.810911,-0.03226 -1.21289,-0.05078 -1.104091,-0.05012 -2.18255,-0.114493 -3.238282,-0.191406 -0.330225,-0.02347 -0.66895,-0.0419 -0.99414,-0.06836 -1.319248,-0.110437 -2.60485,-0.240162 -3.845703,-0.390625 -0.260183,-0.03341 -0.504862,-0.06988 -0.761719,-0.103515 -0.99902,-0.130428 -1.97232,-0.274122 -2.917969,-0.429688 -0.343574,-0.05688 -0.68653,-0.113771 -1.023437,-0.173828 -0.994024,-0.175563 -1.960267,-0.364265 -2.892578,-0.568359 -0.146756,-0.03175 -0.304123,-0.05973 -0.449219,-0.09375 -1.057395,-0.23743 -2.065346,-0.494633 -3.041016,-0.765625 -0.27188,-0.07521 -0.531665,-0.155698 -0.796875,-0.232422 -0.735503,-0.215698 -1.445672,-0.439434 -2.132812,-0.671875 -0.24519,-0.08353 -0.495925,-0.16263 -0.734375,-0.248047 -0.863925,-0.305991 -1.694363,-0.624055 -2.476563,-0.957031 -0.111798,-0.04687 -0.212206,-0.09578 -0.322266,-0.144532 -0.672132,-0.294274 -1.311187,-0.595194 -1.919921,-0.90625 -0.20846,-0.10696 -0.40954,-0.215368 -0.611329,-0.324218 -0.545382,-0.294274 -1.064331,-0.592296 -1.554687,-0.898438 -0.126754,-0.07824 -0.263065,-0.155761 -0.384766,-0.234375 -0.584931,-0.379276 -1.125022,-0.769763 -1.625,-1.164062 0,0 -0.002,0 -0.002,0 -0.124663,-0.100217 -0.236104,-0.201524 -0.357422,-0.306641 -0.216801,-0.180435 -0.44632,-0.358842 -0.646484,-0.541016 z"
           id="path898"
           transform="matrix(0.26458333,0,0,0.26458333,-58.475941,-109.14855)" />
        <path
           inkscape:connector-curvature="0"
           style="fill:#e6e6e6;fill-opacity:1;stroke:none;stroke-width:2.88983011;stroke-linejoin:round;stroke-miterlimit:4;stroke-dasharray:none;stroke-opacity:0"
           d="m 50.048828,7.8164062 c -2.825905,0 -5.544355,0.102634 -8.138672,0.2949219 -2.594317,0.192288 -5.064607,0.4739554 -7.392578,0.8300781 -2.327971,0.3561228 -4.514147,0.7877926 -6.541016,1.2792968 -2.026868,0.491504 -3.892975,1.042192 -5.583984,1.640625 -1.691009,0.598433 -3.206951,1.243014 -4.527344,1.919922 -1.320392,0.676908 -2.446309,1.386351 -3.361328,2.113281 -0.915018,0.72693 -1.618862,1.472205 -2.09375,2.220703 -0.474888,0.748499 -0.720703,1.500574 -0.720703,2.242188 0,0.741614 0.245815,1.493689 0.720703,2.242187 0.474888,0.748499 1.178732,1.493774 2.09375,2.220703 0.915019,0.72693 2.040936,1.436374 3.361328,2.113282 1.320393,0.676908 2.836335,1.321489 4.527344,1.919922 1.691009,0.598432 3.557116,1.151073 5.583984,1.642578 2.026869,0.491504 4.213045,0.921221 6.541016,1.277344 2.327971,0.356122 4.798261,0.63779 7.392578,0.830078 2.594317,0.192288 5.312767,0.294922 8.138672,0.294922 2.825906,0 5.546308,-0.102634 8.140625,-0.294922 2.594317,-0.192288 5.062654,-0.473956 7.390625,-0.830078 2.327972,-0.356123 4.514147,-0.78584 6.541016,-1.277344 2.026868,-0.491505 3.894928,-1.044146 5.585937,-1.642578 1.691009,-0.598433 3.204999,-1.243014 4.525391,-1.919922 1.320392,-0.676908 2.448263,-1.386352 3.363281,-2.113282 0.915019,-0.726929 1.616909,-1.472204 2.091797,-2.220703 0.474888,-0.748498 0.722656,-1.500573 0.722656,-2.242187 0,-0.741614 -0.247768,-1.493689 -0.722656,-2.242188 C 87.212612,17.366736 86.510722,16.621461 85.595703,15.894531 84.680685,15.167601 83.552814,14.458158 82.232422,13.78125 80.91203,13.104342 79.39804,12.459761 77.707031,11.861328 76.016022,11.262895 74.147962,10.712207 72.121094,10.220703 70.094225,9.7291988 67.90805,9.297529 65.580078,8.9414062 63.252107,8.5852835 60.78377,8.3036161 58.189453,8.1113281 55.595136,7.9190402 52.874734,7.8164062 50.048828,7.8164062 Z"
           id="path896"
           transform="matrix(0.26458333,0,0,0.26458333,-58.475941,-109.14855)" />
        <g
           id="g1172"
           transform="matrix(0.01753284,0,0,0.01757875,-52.200582,-100.57806)">
          <path
             style="fill:#5a5f64"
             inkscape:connector-curvature="0"
             d="m 1145.7637,639.39209 -120.0586,69.31543 c -12.5489,7.24512 -12.5489,25.48535 0,32.73145 l 120.0586,69.31543 c 12.5683,7.25684 28.3457,-1.85254 28.3457,-16.36621 V 655.75732 c 0,-14.51367 -15.7774,-23.62207 -28.3457,-16.36523 z m -9.4492,122.26562 -63.3653,-36.58398 63.3652,-36.58496 v 73.16894 z"
             id="path1168" />
          <path
             style="clip-rule:evenodd;fill:#5a5f64;fill-rule:evenodd"
             inkscape:connector-curvature="0"
             d="M 1139.3906,884.24609 978.82227,791.54052 c -7.51367,-4.33789 -17.13672,-2.14453 -22.00391,5.13281 -24.02539,35.92578 -64.13672,57.37549 -107.29443,57.37549 -71.11719,0 -128.97656,-57.85791 -128.97656,-128.9751 0,-71.11816 57.85938,-128.97754 128.97656,-128.97754 43.15771,0 83.26904,21.44922 107.29443,57.37695 4.86328,7.27051 14.5,9.46582 22.00195,5.13184 l 160.57029,-92.70508 c 8.086,-4.66602 10.7032,-15.07617 5.7989,-23.0127 -61.6407,-99.83105 -171.71489,-165.05762 -295.66558,-165.05762 -195.38086,0 -347.24414,159.09961 -347.24414,347.24414 0,190.21729 153.74414,347.24269 347.24414,347.24269 123.95459,0 234.02488,-65.2305 295.66558,-165.05665 4.9003,-7.93358 2.2793,-18.34959 -5.7989,-23.01366 z M 849.52393,868.22266 c 47.8999,0 92.41357,-23.80322 119.07373,-63.66943 0.67383,-1.00684 2.07031,-1.35645 3.13672,-0.73926 l 86.52152,49.95361 c -43.1934,69.91211 -120.51762,116.50195 -208.73197,116.50195 -87.22656,0 -163.81055,-45.55078 -207.27539,-114.16016 -2.88477,-4.55469 -1.36719,-10.57666 3.25391,-13.24463 l 80.07813,-46.23242 c 24.78514,42.7627 71.06053,71.59034 123.94335,71.59034 z m 0,-476.22022 c 116.36865,0 222.39017,59.18945 283.60887,158.33203 0.6914,1.12109 0.336,2.61914 -0.8262,3.29004 l -86.33,49.84277 C 1005.2383,537.7915 932.49219,494.04931 849.52393,494.04931 c -82.25977,0 -154.4707,42.99512 -195.40234,107.73633 -2.70898,4.2832 -8.31641,5.66992 -12.70508,3.13574 l -80.27344,-46.3457 c 57.66797,-99.5 165.33593,-166.57324 288.38086,-166.57324 z"
             id="path1170" />
        </g>
        <path
           id="path1273"
           d="m -45.233515,-89.825867 c -0.364935,0 -0.722369,-0.007 -1.073184,-0.01947 -0.214461,-0.008 -0.421419,-0.02169 -0.630585,-0.03406 -0.129289,-0.0076 -0.262559,-0.01237 -0.389646,-0.02169 -0.278003,-0.01992 -0.548065,-0.04602 -0.815037,-0.07387 -0.0503,-0.0054 -0.102821,-0.0089 -0.152689,-0.01421 -0.305804,-0.03363 -0.603665,-0.07212 -0.894026,-0.114596 -0.0075,-8.83e-4 -0.01501,-0.0018 -0.0225,-0.0032 -1.49372,-0.221217 -2.775629,-0.558792 -3.777765,-0.959634 -0.0053,-0.0018 -0.01068,-0.004 -0.01584,-0.0062 -0.184896,-0.07433 -0.358317,-0.151317 -0.523353,-0.229623 -0.01898,-0.0094 -0.03928,-0.01815 -0.05826,-0.02742 -0.14827,-0.07167 -0.285507,-0.145111 -0.417008,-0.219888 -0.03089,-0.0177 -0.06355,-0.03495 -0.09355,-0.05309 -0.114295,-0.06726 -0.218432,-0.135831 -0.318161,-0.204845 -0.03794,-0.02655 -0.07722,-0.05309 -0.113411,-0.07965 -0.08427,-0.06239 -0.159743,-0.125212 -0.232112,-0.188476 -0.03928,-0.03495 -0.07899,-0.06946 -0.114729,-0.104411 -0.05913,-0.05752 -0.111194,-0.115481 -0.160177,-0.173434 -0.03443,-0.0407 -0.06751,-0.08185 -0.09663,-0.122554 -0.03883,-0.05442 -0.07193,-0.108842 -0.101937,-0.163256 -0.02383,-0.0438 -0.04501,-0.0876 -0.06311,-0.1314 -0.02161,-0.05354 -0.03883,-0.107069 -0.05119,-0.160161 -0.01676,-0.07167 -0.03486,-0.143792 -0.03486,-0.21458 v -3.631038 c 0.01234,0.01154 0.0278,0.02256 0.0406,0.03406 0.0962,0.08451 0.194161,0.169009 0.304481,0.250416 1.662287,1.262259 4.986863,2.241802 9.804719,2.241802 4.797555,0 8.113306,-0.97158 9.782652,-2.224547 0.133275,-0.09734 0.253292,-0.197767 0.366261,-0.299967 h 4.4e-4 v 1.639651 c 0,0.244665 0.197251,0.442432 0.441276,0.442432 0.244027,0 0.441278,-0.197767 0.441278,-0.442432 v -3.097023 -0.221215 -5.309184 -0.22121 c 0,-0.0805 -0.02735,-0.15175 -0.06443,-0.21679 -0.510999,-1.89804 -4.314358,-3.7651 -10.96748,-3.7651 -6.653566,0 -10.456926,1.86706 -10.967483,3.7651 -0.03751,0.065 -0.06443,0.13626 -0.06443,0.21679 v 0.22121 5.309184 0.221215 5.087966 0.221216 5.309181 c 0,0.07123 0.01853,0.138474 0.05075,0.198211 0.502615,2.138272 4.717686,3.397875 8.741684,3.700497 0.01101,8.87e-4 0.0225,0.0013 0.03354,0.0013 0.229021,0 0.422302,-0.176531 0.439512,-0.409249 0.0181,-0.24378 -0.163713,-0.456148 -0.406857,-0.474287 -4.904787,-0.368988 -7.762493,-1.866177 -7.961948,-3.088174 -0.0035,-0.01992 -0.0083,-0.03893 -0.01417,-0.05796 v -3.722621 c 0.01234,0.01154 0.0278,0.02256 0.0406,0.03406 0.0962,0.08451 0.194161,0.16901 0.30448,0.250416 1.661847,1.260932 4.986423,2.240475 9.804278,2.240475 0.244025,0 0.441276,-0.197768 0.441276,-0.442431 0,-0.244665 -0.197691,-0.442432 -0.441276,-0.442432 z m -9.884147,-12.035473 c 0.132374,0.10441 0.275356,0.2075 0.430242,0.30793 0.0322,0.0208 0.0684,0.0412 0.101937,0.0619 0.12974,0.081 0.266972,0.16017 0.411271,0.23803 0.05339,0.0288 0.10679,0.0571 0.161945,0.0854 0.161061,0.0823 0.330073,0.16194 0.507908,0.2398 0.02912,0.0129 0.0556,0.0261 0.08518,0.0385 0.206957,0.0881 0.426715,0.17211 0.655295,0.25307 0.06309,0.0226 0.129289,0.0438 0.194162,0.0659 0.181806,0.0615 0.36979,0.12035 0.564392,0.17742 0.07017,0.0203 0.138996,0.0416 0.210931,0.0615 0.258146,0.0717 0.524676,0.13981 0.804445,0.20263 0.03839,0.009 0.07987,0.0164 0.118699,0.0248 0.246674,0.054 0.502613,0.10398 0.765615,0.15043 0.08914,0.01589 0.179598,0.03097 0.270502,0.04602 0.250203,0.04116 0.507909,0.0792 0.772233,0.113709 0.06796,0.0089 0.132824,0.01858 0.201664,0.02742 0.328309,0.03981 0.668092,0.07387 1.017143,0.10309 0.08604,0.007 0.175627,0.01237 0.262999,0.01858 0.279329,0.02035 0.564835,0.03717 0.856959,0.05043 0.106357,0.0049 0.212254,0.0097 0.320808,0.01321 0.380822,0.01321 0.768262,0.02212 1.169382,0.02212 0.40112,0 0.789002,-0.0094 1.169383,-0.02212 0.108108,-0.0035 0.214018,-0.0089 0.320807,-0.01321 0.292125,-0.01321 0.577631,-0.03009 0.85696,-0.05043 0.08738,-0.0067 0.176509,-0.01154 0.262998,-0.01858 0.349051,-0.02876 0.688834,-0.06327 1.017143,-0.10309 0.06885,-0.0083 0.133709,-0.01858 0.201664,-0.02742 0.264324,-0.03452 0.521588,-0.07255 0.772232,-0.113709 0.09091,-0.01505 0.181365,-0.03008 0.270504,-0.04602 0.263001,-0.04645 0.518941,-0.09645 0.765614,-0.15043 0.03883,-0.008 0.08031,-0.0159 0.118699,-0.0248 0.279769,-0.0628 0.546299,-0.13096 0.804446,-0.20263 0.07193,-0.0199 0.140764,-0.0407 0.21093,-0.0615 0.194602,-0.0566 0.382587,-0.11592 0.564392,-0.17742 0.06486,-0.0221 0.131057,-0.0434 0.194163,-0.0659 0.22858,-0.0814 0.448777,-0.16546 0.655294,-0.25307 0.02957,-0.0124 0.05604,-0.0261 0.08516,-0.0385 0.177834,-0.0779 0.346842,-0.1575 0.507908,-0.2398 0.05515,-0.0283 0.108992,-0.0566 0.161945,-0.0854 0.1443,-0.0774 0.281534,-0.15661 0.41127,-0.23803 0.03354,-0.0208 0.06972,-0.0412 0.101936,-0.0619 0.15489,-0.10043 0.297861,-0.20307 0.430243,-0.30793 0.03309,-0.0266 0.06266,-0.0531 0.09488,-0.0797 0.05738,-0.0478 0.117815,-0.0951 0.170775,-0.14334 v 3.631039 c 0,0.07123 -0.0181,0.142905 -0.03486,0.21458 -0.01234,0.05353 -0.02957,0.106619 -0.05119,0.160162 -0.01765,0.0438 -0.03928,0.0876 -0.06311,0.1314 -0.02957,0.05442 -0.06266,0.108842 -0.101937,0.163255 -0.02912,0.04071 -0.06223,0.08185 -0.09663,0.122554 -0.04898,0.05796 -0.101053,0.115916 -0.160177,0.173432 -0.03574,0.03495 -0.07502,0.06946 -0.11473,0.104412 -0.07236,0.06327 -0.147833,0.126099 -0.23211,0.188476 -0.0362,0.02699 -0.07502,0.05309 -0.113412,0.07963 -0.09973,0.06901 -0.20387,0.137587 -0.31816,0.204845 -0.03001,0.01815 -0.06223,0.0354 -0.09354,0.05309 -0.131508,0.07432 -0.268739,0.147771 -0.417007,0.219889 -0.01898,0.0094 -0.03883,0.01815 -0.05826,0.02742 -0.165481,0.07831 -0.338459,0.155295 -0.523354,0.229621 -0.0053,0.0022 -0.01051,0.004 -0.01584,0.0062 -1.002138,0.401285 -2.284046,0.738861 -3.777766,0.959634 -0.0075,8.84e-4 -0.01501,0.0018 -0.0225,0.0032 -0.29036,0.04293 -0.588222,0.0814 -0.894027,0.114595 -0.04987,0.0054 -0.10237,0.0089 -0.152688,0.01421 -0.266973,0.02787 -0.537033,0.05353 -0.815036,0.07387 -0.127088,0.0094 -0.260353,0.01421 -0.389648,0.02167 -0.209166,0.01237 -0.416123,0.0261 -0.630584,0.03406 -0.349933,0.01104 -0.707808,0.01814 -1.0723,0.01814 -0.364495,0 -0.72237,-0.007 -1.073185,-0.01947 -0.214462,-0.008 -0.42142,-0.02169 -0.630585,-0.03406 -0.129289,-0.0076 -0.262559,-0.01237 -0.389647,-0.02167 -0.278003,-0.01992 -0.548064,-0.04602 -0.815036,-0.07387 -0.0503,-0.0054 -0.102822,-0.0089 -0.152689,-0.01421 -0.305804,-0.03363 -0.603666,-0.07212 -0.894026,-0.114594 -0.0075,-8.85e-4 -0.01501,-0.0018 -0.0225,-0.0032 -1.493719,-0.221216 -2.775628,-0.558792 -3.777765,-0.959634 -0.0053,-0.0018 -0.01068,-0.004 -0.01584,-0.0062 -0.184896,-0.07432 -0.358317,-0.151316 -0.523354,-0.229622 -0.01898,-0.0094 -0.03928,-0.01815 -0.05826,-0.02742 -0.148269,-0.07167 -0.285507,-0.145112 -0.417007,-0.219888 -0.03089,-0.0177 -0.06355,-0.03495 -0.09355,-0.05309 -0.114296,-0.06726 -0.218433,-0.135832 -0.318162,-0.204846 -0.03794,-0.02654 -0.07722,-0.05309 -0.11341,-0.07963 -0.08427,-0.06239 -0.159744,-0.125213 -0.232113,-0.188477 -0.03928,-0.03495 -0.07899,-0.06946 -0.114728,-0.104411 -0.05913,-0.05752 -0.111193,-0.115481 -0.160178,-0.173434 -0.03442,-0.04071 -0.06751,-0.08185 -0.09663,-0.122554 -0.03883,-0.05442 -0.07193,-0.108843 -0.101937,-0.163255 -0.02383,-0.0438 -0.04501,-0.08761 -0.06311,-0.1314 -0.02161,-0.05355 -0.03883,-0.10707 -0.05119,-0.160163 -0.01676,-0.07167 -0.03486,-0.143791 -0.03486,-0.214579 v -3.631037 c 0.05296,0.0482 0.113412,0.0956 0.170774,0.14334 0.0322,0.0279 0.06177,0.0544 0.09488,0.081 z m 9.884147,-5.21937 c 5.981501,0 10.149354,1.74849 10.149354,3.31824 0,1.56975 -4.167853,3.31824 -10.149354,3.31824 -5.9815,0 -10.149355,-1.74849 -10.149355,-3.31824 0,-1.56975 4.167855,-3.31824 10.149355,-3.31824 z"
           inkscape:connector-curvature="0"
           style="fill:#03a87c;fill-opacity:1;stroke:#03a87c;stroke-width:0.44180098;stroke-miterlimit:4;stroke-dasharray:none;stroke-opacity:1" />
      </g>
    </g>
  </g>
</svg>
