<?xml version="1.0" encoding="UTF-8" standalone="no"?>
<!-- Created with Inkscape (http://www.inkscape.org/) -->

<svg
   xmlns:dc="http://purl.org/dc/elements/1.1/"
   xmlns:cc="http://creativecommons.org/ns#"
   xmlns:rdf="http://www.w3.org/1999/02/22-rdf-syntax-ns#"
   xmlns:svg="http://www.w3.org/2000/svg"
   xmlns="http://www.w3.org/2000/svg"
   xmlns:sodipodi="http://sodipodi.sourceforge.net/DTD/sodipodi-0.dtd"
   xmlns:inkscape="http://www.inkscape.org/namespaces/inkscape"
   width="96.837509mm"
   height="26.458342mm"
   viewBox="0 0 96.837506 26.458341"
   version="1.1"
   id="svg5379"
   inkscape:version="0.92.2 (5c3e80d, 2017-08-06)"
   sodipodi:docname="Logo Local Server for Construct 3.svg">
  <defs
     id="defs5373" />
  <sodipodi:namedview
     id="base"
     pagecolor="#ffffff"
     bordercolor="#666666"
     borderopacity="1.0"
     inkscape:pageopacity="0.0"
     inkscape:pageshadow="2"
     inkscape:zoom="1.979899"
     inkscape:cx="53.32023"
     inkscape:cy="82.869922"
     inkscape:document-units="mm"
     inkscape:current-layer="layer1"
     showgrid="false"
     fit-margin-top="0"
     fit-margin-left="0"
     fit-margin-right="0"
     fit-margin-bottom="0"
     inkscape:window-width="1920"
     inkscape:window-height="1017"
     inkscape:window-x="-8"
     inkscape:window-y="-8"
     inkscape:window-maximized="1" />
  <metadata
     id="metadata5376">
    <rdf:RDF>
      <cc:Work
         rdf:about="">
        <dc:format>image/svg+xml</dc:format>
        <dc:type
           rdf:resource="http://purl.org/dc/dcmitype/StillImage" />
        <dc:title></dc:title>
      </cc:Work>
    </rdf:RDF>
  </metadata>
  <g
     inkscape:label="Livello 1"
     inkscape:groupmode="layer"
     id="layer1"
     transform="translate(32.567248,80.266283)">
    <g
       id="logo-8"
       transform="matrix(0.26458333,0,0,0.26458333,-356.40487,-263.34543)" />
    <g
       id="g1277"
       transform="matrix(0.26458333,0,0,0.26458333,-28.968509,-75.195429)" />
    <g
       id="g1279"
       transform="matrix(0.26458333,0,0,0.26458333,-28.968509,-75.195429)" />
    <g
       id="g1281"
       transform="matrix(0.26458333,0,0,0.26458333,-28.968509,-75.195429)" />
    <g
       id="g1283"
       transform="matrix(0.26458333,0,0,0.26458333,-28.968509,-75.195429)" />
    <g
       id="g1285"
       transform="matrix(0.26458333,0,0,0.26458333,-28.968509,-75.195429)" />
    <g
       id="g1287"
       transform="matrix(0.26458333,0,0,0.26458333,-28.968509,-75.195429)" />
    <g
       id="g1289"
       transform="matrix(0.26458333,0,0,0.26458333,-28.968509,-75.195429)" />
    <g
       id="g1291"
       transform="matrix(0.26458333,0,0,0.26458333,-28.968509,-75.195429)" />
    <g
       id="g1293"
       transform="matrix(0.26458333,0,0,0.26458333,-28.968509,-75.195429)" />
    <g
       id="g1295"
       transform="matrix(0.26458333,0,0,0.26458333,-28.968509,-75.195429)" />
    <g
       id="g1297"
       transform="matrix(0.26458333,0,0,0.26458333,-28.968509,-75.195429)" />
    <g
       id="g1299"
       transform="matrix(0.26458333,0,0,0.26458333,-28.968509,-75.195429)" />
    <g
       id="g1301"
       transform="matrix(0.26458333,0,0,0.26458333,-28.968509,-75.195429)" />
    <g
       id="g1303"
       transform="matrix(0.26458333,0,0,0.26458333,-28.968509,-75.195429)" />
    <g
       id="g1305"
       transform="matrix(0.26458333,0,0,0.26458333,-28.968509,-75.195429)" />
    <g
       id="g1465">
      <g
         id="g1453">
        <g
           id="g1172"
           transform="matrix(0.01753284,0,0,0.01757875,-28.281387,-72.657924)">
          <path
             style="fill:#5a5f64"
             inkscape:connector-curvature="0"
             d="m 1145.7637,639.39209 -120.0586,69.31543 c -12.5489,7.24512 -12.5489,25.48535 0,32.73145 l 120.0586,69.31543 c 12.5683,7.25684 28.3457,-1.85254 28.3457,-16.36621 V 655.75732 c 0,-14.51367 -15.7774,-23.62207 -28.3457,-16.36523 z m -9.4492,122.26562 -63.3653,-36.58398 63.3652,-36.58496 v 73.16894 z"
             id="path1168" />
          <path
             style="clip-rule:evenodd;fill:#5a5f64;fill-rule:evenodd"
             inkscape:connector-curvature="0"
             d="M 1139.3906,884.24609 978.82227,791.54052 c -7.51367,-4.33789 -17.13672,-2.14453 -22.00391,5.13281 -24.02539,35.92578 -64.13672,57.37549 -107.29443,57.37549 -71.11719,0 -128.97656,-57.85791 -128.97656,-128.9751 0,-71.11816 57.85938,-128.97754 128.97656,-128.97754 43.15771,0 83.26904,21.44922 107.29443,57.37695 4.86328,7.27051 14.5,9.46582 22.00195,5.13184 l 160.57029,-92.70508 c 8.086,-4.66602 10.7032,-15.07617 5.7989,-23.0127 -61.6407,-99.83105 -171.71489,-165.05762 -295.66558,-165.05762 -195.38086,0 -347.24414,159.09961 -347.24414,347.24414 0,190.21729 153.74414,347.24269 347.24414,347.24269 123.95459,0 234.02488,-65.2305 295.66558,-165.05665 4.9003,-7.93358 2.2793,-18.34959 -5.7989,-23.01366 z M 849.52393,868.22266 c 47.8999,0 92.41357,-23.80322 119.07373,-63.66943 0.67383,-1.00684 2.07031,-1.35645 3.13672,-0.73926 l 86.52152,49.95361 c -43.1934,69.91211 -120.51762,116.50195 -208.73197,116.50195 -87.22656,0 -163.81055,-45.55078 -207.27539,-114.16016 -2.88477,-4.55469 -1.36719,-10.57666 3.25391,-13.24463 l 80.07813,-46.23242 c 24.78514,42.7627 71.06053,71.59034 123.94335,71.59034 z m 0,-476.22022 c 116.36865,0 222.39017,59.18945 283.60887,158.33203 0.6914,1.12109 0.336,2.61914 -0.8262,3.29004 l -86.33,49.84277 C 1005.2383,537.7915 932.49219,494.04931 849.52393,494.04931 c -82.25977,0 -154.4707,42.99512 -195.40234,107.73633 -2.70898,4.2832 -8.31641,5.66992 -12.70508,3.13574 l -80.27344,-46.3457 c 57.66797,-99.5 165.33593,-166.57324 288.38086,-166.57324 z"
             id="path1170" />
        </g>
        <path
           id="path1273"
           d="m -21.314472,-61.90552 c -0.364935,0 -0.722369,-0.007 -1.073184,-0.01947 -0.214461,-0.008 -0.421419,-0.02169 -0.630585,-0.03406 -0.129289,-0.0076 -0.262559,-0.01237 -0.389646,-0.02169 -0.278003,-0.01992 -0.548065,-0.04602 -0.815037,-0.07387 -0.0503,-0.0054 -0.102821,-0.0089 -0.152689,-0.01421 -0.305804,-0.03363 -0.603665,-0.07212 -0.894026,-0.114596 -0.0075,-8.83e-4 -0.01501,-0.0018 -0.0225,-0.0032 -1.49372,-0.221217 -2.775629,-0.558792 -3.777765,-0.959634 -0.0053,-0.0018 -0.01068,-0.004 -0.01584,-0.0062 -0.184896,-0.07433 -0.358317,-0.151317 -0.523353,-0.229623 -0.01898,-0.0094 -0.03928,-0.01815 -0.05826,-0.02742 -0.14827,-0.07167 -0.285507,-0.145111 -0.417008,-0.219888 -0.03089,-0.0177 -0.06355,-0.03495 -0.09355,-0.05309 -0.114295,-0.06726 -0.218432,-0.135831 -0.318161,-0.204845 -0.03794,-0.02655 -0.07722,-0.05309 -0.113411,-0.07965 -0.08427,-0.06239 -0.159743,-0.125212 -0.232112,-0.188476 -0.03928,-0.03495 -0.07899,-0.06946 -0.114729,-0.104411 -0.05913,-0.05752 -0.111194,-0.115481 -0.160177,-0.173434 -0.03443,-0.0407 -0.06751,-0.08185 -0.09663,-0.122554 -0.03883,-0.05442 -0.07193,-0.108842 -0.101937,-0.163256 -0.02383,-0.0438 -0.04501,-0.0876 -0.06311,-0.1314 -0.02161,-0.05354 -0.03883,-0.107069 -0.05119,-0.160161 -0.01676,-0.07167 -0.03486,-0.143792 -0.03486,-0.21458 v -3.631038 c 0.01234,0.01154 0.0278,0.02256 0.0406,0.03406 0.0962,0.08451 0.194161,0.169009 0.304481,0.250416 1.662287,1.262259 4.986863,2.241802 9.804719,2.241802 4.797555,0 8.113306,-0.97158 9.782653,-2.224547 0.133275,-0.09734 0.253292,-0.197767 0.366261,-0.299967 h 4.4e-4 v 1.639651 c 0,0.244665 0.197251,0.442432 0.441276,0.442432 0.244027,0 0.441278,-0.197767 0.441278,-0.442432 v -3.097023 -0.221215 -5.309182 -0.221216 c 0,-0.08052 -0.02735,-0.15175 -0.06443,-0.216792 -0.510999,-1.898031 -4.314359,-3.765094 -10.967481,-3.765094 -6.653566,0 -10.456926,1.867063 -10.967483,3.765094 -0.03751,0.06504 -0.06443,0.136267 -0.06443,0.216792 v 0.221216 5.309182 0.221215 5.087966 0.221216 5.309181 c 0,0.07123 0.01853,0.138474 0.05075,0.198211 0.502615,2.138272 4.717686,3.397875 8.741684,3.700497 0.01101,8.87e-4 0.0225,0.0013 0.03354,0.0013 0.229021,0 0.422302,-0.176531 0.439512,-0.409249 0.0181,-0.24378 -0.163713,-0.456148 -0.406857,-0.474287 -4.904787,-0.368988 -7.762493,-1.866177 -7.961948,-3.088174 -0.0035,-0.01992 -0.0083,-0.03893 -0.01417,-0.05796 v -3.722621 c 0.01234,0.01154 0.0278,0.02256 0.0406,0.03406 0.0962,0.08451 0.194161,0.16901 0.30448,0.250416 1.661847,1.260932 4.986423,2.240475 9.804278,2.240475 0.244025,0 0.441276,-0.197768 0.441276,-0.442431 0,-0.244665 -0.197691,-0.442432 -0.441276,-0.442432 z m -9.884147,-12.035473 c 0.132374,0.104411 0.275356,0.207501 0.430242,0.307933 0.0322,0.02081 0.0684,0.04115 0.101937,0.06193 0.12974,0.08097 0.266972,0.160161 0.411271,0.238028 0.05339,0.02877 0.10679,0.05707 0.161945,0.08538 0.161061,0.08229 0.330073,0.161935 0.507908,0.239798 0.02912,0.01288 0.0556,0.0261 0.08518,0.03849 0.206957,0.08805 0.426715,0.172107 0.655295,0.253072 0.06309,0.02256 0.129289,0.0438 0.194162,0.06592 0.181806,0.0615 0.36979,0.120347 0.564392,0.177416 0.07017,0.02035 0.138996,0.04159 0.210931,0.0615 0.258146,0.07167 0.524676,0.139812 0.804445,0.202634 0.03839,0.0089 0.07987,0.01638 0.118699,0.02478 0.246674,0.05398 0.502613,0.103976 0.765615,0.150429 0.08914,0.01589 0.179598,0.03097 0.270502,0.04602 0.250203,0.04116 0.507909,0.0792 0.772233,0.113709 0.06796,0.0089 0.132824,0.01858 0.201664,0.02742 0.328309,0.03981 0.668092,0.07387 1.017143,0.10309 0.08604,0.007 0.175627,0.01237 0.262999,0.01858 0.279329,0.02035 0.564835,0.03717 0.856959,0.05043 0.106357,0.0049 0.212254,0.0097 0.320808,0.01321 0.380822,0.01321 0.768262,0.02212 1.169382,0.02212 0.40112,0 0.789002,-0.0094 1.169383,-0.02212 0.108108,-0.0035 0.214018,-0.0089 0.320807,-0.01321 0.292125,-0.01321 0.577631,-0.03009 0.85696,-0.05043 0.08738,-0.0067 0.176509,-0.01154 0.262998,-0.01858 0.349051,-0.02876 0.688834,-0.06327 1.017143,-0.10309 0.06885,-0.0083 0.133709,-0.01858 0.201664,-0.02742 0.264324,-0.03452 0.521588,-0.07255 0.772232,-0.113709 0.09091,-0.01505 0.181365,-0.03008 0.270504,-0.04602 0.263001,-0.04645 0.518941,-0.09645 0.765614,-0.150429 0.03883,-0.0083 0.08031,-0.01589 0.118699,-0.02478 0.279769,-0.06282 0.546299,-0.130966 0.804446,-0.202634 0.07193,-0.01992 0.140764,-0.0407 0.21093,-0.0615 0.194602,-0.05664 0.382587,-0.115916 0.564392,-0.177416 0.06486,-0.02212 0.131057,-0.04336 0.194163,-0.06592 0.22858,-0.0814 0.448777,-0.165463 0.655294,-0.253072 0.02957,-0.01237 0.05604,-0.0261 0.08516,-0.03849 0.177834,-0.07788 0.346842,-0.157503 0.507908,-0.239798 0.05515,-0.02831 0.108992,-0.05664 0.161945,-0.08538 0.1443,-0.07743 0.281534,-0.156616 0.41127,-0.238028 0.03354,-0.02081 0.06972,-0.04115 0.101937,-0.06193 0.15489,-0.100432 0.297861,-0.203077 0.430243,-0.307933 0.03309,-0.02655 0.06266,-0.05309 0.09488,-0.07965 0.05738,-0.04777 0.117815,-0.09511 0.170775,-0.143339 v 3.631038 c 0,0.07123 -0.0181,0.142905 -0.03486,0.21458 -0.01234,0.05353 -0.02957,0.106619 -0.05119,0.160162 -0.01765,0.0438 -0.03928,0.0876 -0.06311,0.1314 -0.02957,0.05442 -0.06266,0.108842 -0.101937,0.163255 -0.02912,0.04071 -0.06223,0.08185 -0.09663,0.122554 -0.04898,0.05796 -0.101053,0.115916 -0.160177,0.173432 -0.03574,0.03495 -0.07502,0.06946 -0.11473,0.104412 -0.07236,0.06327 -0.147834,0.126099 -0.232111,0.188476 -0.0362,0.02699 -0.07502,0.05309 -0.113412,0.07963 -0.09973,0.06901 -0.20387,0.137587 -0.31816,0.204845 -0.03001,0.01815 -0.06223,0.0354 -0.09354,0.05309 -0.131508,0.07432 -0.268739,0.147771 -0.417007,0.219889 -0.01898,0.0094 -0.03883,0.01815 -0.05826,0.02742 -0.165481,0.07831 -0.338459,0.155295 -0.523354,0.229621 -0.0053,0.0022 -0.01051,0.004 -0.01584,0.0062 -1.002138,0.401285 -2.284046,0.738861 -3.777766,0.959634 -0.0075,8.84e-4 -0.01501,0.0018 -0.0225,0.0032 -0.29036,0.04293 -0.588222,0.0814 -0.894027,0.114595 -0.04987,0.0054 -0.10237,0.0089 -0.152688,0.01421 -0.266973,0.02787 -0.537033,0.05353 -0.815036,0.07387 -0.127088,0.0094 -0.260353,0.01421 -0.389648,0.02167 -0.209166,0.01237 -0.416123,0.0261 -0.630584,0.03406 -0.349933,0.01104 -0.707808,0.01814 -1.0723,0.01814 -0.364495,0 -0.72237,-0.007 -1.073185,-0.01947 -0.214462,-0.008 -0.42142,-0.02169 -0.630585,-0.03406 -0.129289,-0.0076 -0.262559,-0.01237 -0.389647,-0.02167 -0.278003,-0.01992 -0.548064,-0.04602 -0.815036,-0.07387 -0.0503,-0.0054 -0.102822,-0.0089 -0.152689,-0.01421 -0.305804,-0.03363 -0.603666,-0.07212 -0.894026,-0.114594 -0.0075,-8.85e-4 -0.01501,-0.0018 -0.0225,-0.0032 -1.493719,-0.221216 -2.775628,-0.558792 -3.777765,-0.959634 -0.0053,-0.0018 -0.01068,-0.004 -0.01584,-0.0062 -0.184896,-0.07432 -0.358317,-0.151316 -0.523354,-0.229622 -0.01898,-0.0094 -0.03928,-0.01815 -0.05826,-0.02742 -0.148269,-0.07167 -0.285507,-0.145112 -0.417007,-0.219888 -0.03089,-0.0177 -0.06355,-0.03495 -0.09355,-0.05309 -0.114296,-0.06726 -0.218433,-0.135832 -0.318162,-0.204846 -0.03794,-0.02654 -0.07722,-0.05309 -0.11341,-0.07963 -0.08427,-0.06239 -0.159744,-0.125213 -0.232113,-0.188477 -0.03928,-0.03495 -0.07899,-0.06946 -0.114728,-0.104411 -0.05913,-0.05752 -0.111193,-0.115481 -0.160178,-0.173434 -0.03442,-0.04071 -0.06751,-0.08185 -0.09663,-0.122554 -0.03883,-0.05442 -0.07193,-0.108843 -0.101937,-0.163255 -0.02383,-0.0438 -0.04501,-0.08761 -0.06311,-0.1314 -0.02161,-0.05355 -0.03883,-0.10707 -0.05119,-0.160163 -0.01676,-0.07167 -0.03486,-0.143791 -0.03486,-0.214579 v -3.631039 c 0.05296,0.04822 0.113412,0.09556 0.170774,0.14334 0.0322,0.02787 0.06177,0.05442 0.09488,0.08097 z m 9.884147,-5.219367 c 5.981501,0 10.149355,1.74849 10.149355,3.318239 0,1.569746 -4.167854,3.318238 -10.149355,3.318238 -5.9815,0 -10.149355,-1.748492 -10.149355,-3.318238 0,-1.569749 4.167855,-3.318239 10.149355,-3.318239 z"
           inkscape:connector-curvature="0"
           style="fill:none;fill-opacity:1;stroke:#03a87c;stroke-width:0.44180098;stroke-miterlimit:4;stroke-dasharray:none;stroke-opacity:1" />
      </g>
      <g
         id="g1447">
        <text
           xml:space="preserve"
           style="font-style:normal;font-variant:normal;font-weight:normal;font-stretch:normal;font-size:7.46103573px;line-height:1.25;font-family:'Open Sans';-inkscape-font-specification:'Open Sans, Normal';font-variant-ligatures:normal;font-variant-caps:normal;font-variant-numeric:normal;font-feature-settings:normal;text-align:start;letter-spacing:0px;word-spacing:0px;writing-mode:lr-tb;text-anchor:start;fill:#03a87c;fill-opacity:1;stroke:none;stroke-width:0.18652464"
           x="12.771924"
           y="-59.751842"
           id="text1226"
           transform="scale(0.99869332,1.0013084)"><tspan
             sodipodi:role="line"
             id="tspan1381"
             x="12.771924"
             y="-59.751842"
             style="fill:#03a87c;fill-opacity:1;stroke-width:0.18652464">for Construct 3</tspan></text>
        <text
           xml:space="preserve"
           style="font-style:normal;font-variant:normal;font-weight:bold;font-stretch:normal;font-size:12.07862377px;line-height:1.25;font-family:'Open Sans';-inkscape-font-specification:'Open Sans, Bold';font-variant-ligatures:normal;font-variant-caps:normal;font-variant-numeric:normal;font-feature-settings:normal;text-align:start;letter-spacing:0px;word-spacing:0px;writing-mode:lr-tb;text-anchor:start;fill:#03a87c;fill-opacity:1;stroke:none;stroke-width:0.3019636"
           x="-8.7956381"
           y="-67.173157"
           id="text1226-5"
           transform="scale(0.99869332,1.0013084)"><tspan
             sodipodi:role="line"
             id="tspan1379"
             x="-8.7956381"
             y="-67.173157"
             style="fill:#03a87c;fill-opacity:1;stroke-width:0.3019636">Local Server</tspan></text>
      </g>
    </g>
  </g>
</svg>
