<?xml version="1.0" encoding="UTF-8" standalone="no"?>
<!-- Created with Inkscape (http://www.inkscape.org/) -->

<svg
   xmlns:dc="http://purl.org/dc/elements/1.1/"
   xmlns:cc="http://creativecommons.org/ns#"
   xmlns:rdf="http://www.w3.org/1999/02/22-rdf-syntax-ns#"
   xmlns:svg="http://www.w3.org/2000/svg"
   xmlns="http://www.w3.org/2000/svg"
   xmlns:sodipodi="http://sodipodi.sourceforge.net/DTD/sodipodi-0.dtd"
   xmlns:inkscape="http://www.inkscape.org/namespaces/inkscape"
   width="135.46667mm"
   height="135.46669mm"
   viewBox="0 0 135.46667 135.46669"
   version="1.1"
   id="svg5379"
   inkscape:version="0.92.0 r15299"
   sodipodi:docname="logo strani anelli 1718.svg">
  <defs
     id="defs5373" />
  <sodipodi:namedview
     id="base"
     pagecolor="#ffffff"
     bordercolor="#666666"
     borderopacity="1.0"
     inkscape:pageopacity="0.0"
     inkscape:pageshadow="2"
     inkscape:zoom="0.35"
     inkscape:cx="-871.14285"
     inkscape:cy="-503.99996"
     inkscape:document-units="mm"
     inkscape:current-layer="layer1"
     showgrid="false"
     fit-margin-top="0"
     fit-margin-left="0"
     fit-margin-right="0"
     fit-margin-bottom="0"
     inkscape:window-width="1920"
     inkscape:window-height="1017"
     inkscape:window-x="-8"
     inkscape:window-y="-8"
     inkscape:window-maximized="1" />
  <metadata
     id="metadata5376">
    <rdf:RDF>
      <cc:Work
         rdf:about="">
        <dc:format>image/svg+xml</dc:format>
        <dc:type
           rdf:resource="http://purl.org/dc/dcmitype/StillImage" />
        <dc:title></dc:title>
      </cc:Work>
    </rdf:RDF>
  </metadata>
  <g
     inkscape:label="Livello 1"
     inkscape:groupmode="layer"
     id="layer1"
     transform="translate(-195.33809,119.98334)">
    <g
       transform="matrix(0.28222223,0,0,0.28222223,37.963475,63.401307)"
       id="g5358">
      <ellipse
         inkscape:export-ydpi="90"
         inkscape:export-xdpi="90"
         inkscape:export-filename="V:\Desktop\g6799.png"
         ry="240.00003"
         rx="240"
         cy="-409.78809"
         cx="797.62659"
         id="ellipse5228"
         style="opacity:1;fill:#ffffff;fill-opacity:1;stroke:none;stroke-width:3.74999976;stroke-linecap:round;stroke-linejoin:round;stroke-miterlimit:4;stroke-dasharray:none;stroke-opacity:1" />
      <g
         inkscape:export-ydpi="90"
         inkscape:export-xdpi="90"
         inkscape:export-filename="V:\Desktop\g6799.png"
         style="fill:#008080;stroke-width:0.66406244"
         id="g5234"
         transform="matrix(0.8184144,0,0,0.8184144,793.8207,-857.35544)">
        <path
           sodipodi:nodetypes="csssscscscccssssccsssssccccsccsssssssccssscc"
           inkscape:connector-curvature="0"
           id="path5230"
           d="m -25.76095,606.91891 c -61.62211,-15.1416 -98.75391,-85.3178 -75.14751,-142.023 11.8402,-28.44145 32.12991,-48.05956 59.21531,-57.25542 9.8606,-3.34779 13.6519,-3.86866 27.8435,-3.82538 9.8202,0.0299 20.7383,1.00017 27.1428,2.412 l 10.7143,2.36189 14.5753,-7.51881 c 8.0164,-4.13534 14.9337,-7.16039 15.3717,-6.72232 0.4381,0.43807 -0.2219,5.72101 -1.4666,11.73986 l -2.2632,10.94338 6.7078,7.85153 6.7078,7.85153 9.4693,0.1424 c 5.2081,0.0783 11.0765,0.59882 13.0408,1.15666 3.4852,0.98978 3.3387,1.25625 -6.0715,11.04338 -8.1489,8.4754 -9.6428,10.802 -9.6428,15.0175 0,2.7435 -1.0589,8.0958 -2.353,11.8939 -11.7441,20.2082 -12.0064,18.0898 -21.3927,23.1218 -9.8746,4.2469 -22.2158,3.2361 -36.9686,-3.0278 -30.9784,-13.1533 -34.235,-13.6909 -49.708,-8.2052 -11.5669,4.1008 -17.8626,13.9984 -20.2344,31.8112 -0.7288,5.4736 -2.1167,7.7576 -8.6115,14.1717 -4.2585,4.2056 -7.413,8.18 -7.0101,8.8319 0.4029,0.652 5.034,1.1897 10.2912,1.195 l 9.5585,0.01 8.0383,8.2289 8.0384,8.2288 -1.1675,7.1187 c -0.6421,3.9153 -1.2058,8.9386 -1.2526,11.163 l -0.085,4.0438 12.0056,-6.5442 c 6.6031,-3.5994 13.2503,-6.5443 14.7715,-6.5443 1.5213,0 7.8509,1.3432 14.0658,2.985 13.2607,3.5029 34.0523,4.1126 47.0143,1.3788 11.3619,-2.3964 26.8472,-9.6833 35.8993,-16.8931 9.4112,-7.4958 21.0543,-24.9171 24.8365,-37.1625 2.7439,-8.8837 5.1656,-27.3226 6.0444,-46.0225 l 0.3692,-7.8571 1.8544,5.7143 c 1.02,3.1428 2.2281,11.8215 2.6848,19.286 2.1399,34.9751 -9.1252,65.3218 -33.1438,89.2852 -16.1915,16.1543 -31.3303,24.4849 -55.9274,30.7758 -14.5679,3.7258 -38.2817,3.6543 -53.8144,-0.1623 z"
           style="opacity:1;fill:#008080;fill-opacity:1;stroke:none;stroke-width:0.66406244;stroke-linecap:round;stroke-linejoin:round;stroke-miterlimit:4;stroke-dasharray:none;stroke-opacity:1" />
        <path
           style="fill:#008080;fill-opacity:1;stroke-width:0.66406244"
           d="m -150.95666,697.18831 c -1.86854,-2.0007 -2.33918,-3.599 -2.31004,-7.8452 0.0315,-4.588 1.02666,-7.2879 7.12583,-19.3327 3.89908,-7.7 7.0761,-14.5722 7.06004,-15.2715 -0.0161,-0.6993 -1.09728,-1.7581 -2.40271,-2.3529 -4.30171,-1.9599 -6.38927,0.3739 -13.21613,14.7755 -7.34795,15.5009 -13.96788,23.5175 -23.11637,27.9935 -9.46145,4.629 -19.58984,3.1897 -22.50004,-3.1975 -1.53758,-3.3746 -5.13825,-3.1657 -8.39277,0.4869 -3.64319,4.0889 -9.24525,6.0666 -17.17142,6.0622 -10.91376,-0.01 -16.27071,-4.6423 -14.16704,-12.2612 1.71701,-6.2185 6.81449,-8.8919 14.67895,-7.6984 7.65997,1.1625 6.57178,-0.6764 -3.74167,-6.3231 -8.41409,-4.6068 -10.8172,-11.1161 -7.11387,-19.2693 6.7694,-14.9036 33.22673,-20.0205 35.68776,-6.9021 0.88635,4.7247 -1.97294,8.9579 -6.05058,8.9579 -2.27312,0 -2.96069,-0.6183 -3.89208,-3.5 -0.76894,-2.3791 -1.82724,-3.5992 -3.30446,-3.8095 -2.81372,-0.4007 -9.75113,3.1495 -11.76069,6.0186 -2.86132,4.0851 -1.98164,6.3542 4.3531,11.2287 3.25554,2.5051 7.9836,6.9146 10.50679,9.799 3.81721,4.3637 4.88037,5.0669 6.33083,4.1877 3.02896,-1.8359 9.58505,-12.5553 14.10537,-23.0627 l 4.36149,-10.1382 -2.11183,-2.1118 c -4.37153,-4.3715 -2.14047,-9.6851 4.48369,-10.6784 l 4.59031,-0.6884 4.15709,-8.5674 c 4.5392,-9.3549 6.0147,-10.8067 9.97344,-9.8131 4.536,1.1385 5.06695,3.8096 2.00018,10.0626 -1.48817,3.0343 -2.4271,5.7956 -2.08651,6.1362 1.22238,1.2224 4.37043,-0.617 6.11734,-3.5742 1.98333,-3.3575 8.24826,-6.9891 12.05703,-6.9891 1.36624,0 3.70655,1.0515 5.20069,2.3367 2.24423,1.9304 2.70464,3.1292 2.64772,6.8939 -0.0379,2.5065 -0.56027,5.4753 -1.16085,6.5975 -1.93724,3.6198 -1.26999,5.0382 2.96727,6.3078 2.23257,0.6689 5.21048,2.5843 6.61756,4.2565 2.26896,2.6965 2.49467,3.6573 1.99546,8.4942 -0.4572,4.4299 -1.82705,7.5337 -7.2971,16.5335 -5.22269,8.5929 -6.75005,11.9777 -6.80469,15.0799 -0.0594,3.374 0.27042,4.0485 2.10792,4.3101 1.64514,0.2343 3.49703,-1.2885 7.56534,-6.2207 2.96282,-3.5919 5.87483,-7.5565 6.47112,-8.8101 0.5963,-1.2536 2.63116,-5.6543 4.52193,-9.7793 4.61118,-10.06 11.82614,-17.8576 19.85884,-21.4625 7.4297,-3.3342 14.8409,-3.8099 17.7892,-1.1418 1.8872,1.708 2.0799,1.6902 4.9868,-0.4589 2.8515,-2.1083 3.1646,-2.1431 5.5002,-0.6128 4.5044,2.9514 4.2325,4.8745 -2.4668,17.4511 -3.4352,6.4487 -7.7657,14.6115 -9.6234,18.1396 -5.3005,10.0667 -3.3371,14.252 3.4081,7.2648 4.2936,-4.4476 12.9504,-19.9028 17.4644,-31.1795 3.3052,-8.257 5.7846,-11.5169 9.4612,-12.4396 3.1431,-0.7889 6.3847,0.9753 6.3847,3.4747 0,2.5745 1.2476,2.4786 5.7714,-0.4437 4.8947,-3.1618 9.4127,-4.0158 13.722,-2.5936 4.1072,1.3555 6.5066,4.3646 6.5066,8.1599 0,1.492 -3.1253,9.1544 -6.945,17.0275 -3.8197,7.8731 -7.2251,15.3273 -7.5674,16.5648 -1.145,4.1392 2.103,2.4739 6.4787,-3.3216 4.6373,-6.1421 7.5511,-11.7869 14.0628,-27.2435 5.3766,-12.7624 8.4584,-14.9491 12.4603,-8.8415 1.543,2.355 1.3437,3.0715 -5.0916,18.3037 -6.6602,15.7645 -8.8002,24.3681 -6.4262,25.8354 1.928,1.1915 7.3119,-4.8367 13.0489,-14.6107 4.6983,-8.0044 5.5513,-8.944 7.8743,-8.6743 4.0889,0.4747 4.0143,5.3557 -0.2182,14.2681 -6.1124,12.871 -12.9696,18.5344 -22.4414,18.5344 -3.9995,0 -5.4625,-0.5001 -7.5395,-2.577 l -2.5769,-2.577 -4.3973,2.577 c -6.086,3.5666 -12.8238,3.5656 -16.392,0 -4.1139,-4.1139 -3.2063,-7.7564 8.7482,-35.1097 1.886,-4.3154 2.0498,-5.4522 0.9727,-6.75 -5.2237,-6.2942 -18.3869,9.7306 -28.6344,34.8596 -3.7153,9.1107 -3.7134,9.1095 -16.2593,9.3419 -9.5712,0.1774 -11.2454,-0.044 -13.452,-1.7798 -3.1748,-2.4973 -4.1619,-2.4811 -8.4006,0.1386 -4.8858,3.0196 -12.259,2.2544 -16.38724,-1.7007 -2.49696,-2.3922 -3.27201,-2.6655 -4.70324,-1.6582 -7.0115,4.9347 -10.98418,6.6655 -16.1411,7.0321 -4.93304,0.3507 -5.84182,0.1078 -7.91916,-2.1163 z m -71.5945,-7.1589 c 1.68015,-1.2819 1.73946,-1.616 0.44113,-2.4847 -1.98263,-1.3267 -8.70722,-1.3171 -9.5296,0.014 -2.19738,3.5554 5.07543,5.5329 9.08847,2.4711 z m 115.31984,-5.0284 c 7.6726,-6.9318 20.0983,-27.5022 18.7443,-31.0307 -1.3657,-3.5589 -9.8085,-0.1172 -16.7533,6.8294 -8.0079,8.0101 -12.78077,20.2713 -9.9499,25.5608 1.6112,3.0105 3.474,2.6923 7.9589,-1.3595 z m -74.99207,0.5672 c 6.06493,-3.0941 13.27842,-11.8508 18.27697,-22.1871 7.14097,-14.7665 8.34001,-18.47 6.96025,-21.4982 -0.8651,-1.8987 -1.62072,-2.3755 -2.8971,-1.8282 -0.94972,0.4072 -3.75376,1.0315 -6.2312,1.3873 -2.47744,0.3557 -5.07756,1.001 -5.77804,1.4339 -2.20646,1.3637 -18.21752,36.856 -18.21752,40.3835 0,1.9199 1.77656,4.251 3.23984,4.251 0.46191,0 2.55297,-0.874 4.6468,-1.9422 z m 34.11336,-51.0578 c 0,-2 -0.5,-3 -1.5,-3 -1.57004,0 -1.92139,1.7383 -0.89301,4.4182 1.00222,2.6117 2.39301,1.7875 2.39301,-1.4182 z m 178.03001,61.7207 c -1.3585,-0.6875 -3.5421,-2.8183 -4.8525,-4.7353 -2.15,-3.1453 -2.3327,-4.2456 -1.8718,-11.276 0.9779,-14.9167 11.2585,-30.5481 23.78987,-36.1719 7.4297,-3.3342 14.8409,-3.8099 17.7892,-1.1418 1.8872,1.7079 2.0799,1.6902 4.9868,-0.4589 2.8515,-2.1083 3.1646,-2.1431 5.5002,-0.6128 4.5044,2.9514 4.2325,4.8745 -2.4668,17.4511 -3.4352,6.4487 -7.7657,14.6115 -9.6234,18.1396 -5.3005,10.0667 -3.3371,14.252 3.4081,7.2648 4.2936,-4.4476 12.9504,-19.9028 17.4644,-31.1795 3.3052,-8.257 5.7846,-11.5169 9.4613,-12.4396 3.1431,-0.7889 6.3846,0.9753 6.3846,3.4747 0,2.5745 1.2477,2.4786 5.7715,-0.4437 4.8946,-3.1618 9.4127,-4.0158 13.722,-2.5936 4.1071,1.3555 6.5065,4.3646 6.5065,8.1599 0,1.492 -3.1252,9.1544 -6.945,17.0275 -7.9749,16.4376 -8.8268,18.8148 -6.7425,18.8148 2.2456,0 9.6144,-10.4744 11.7637,-16.7215 5.5753,-16.2048 19.8947,-28.2785 33.5383,-28.2785 6.36,0 10.3855,3.9639 10.3855,10.2267 0,13.532 -15.4953,26.3479 -29.5304,24.4241 -4.0746,-0.5584 -4.4912,-0.4127 -5.0372,1.7625 -1.5113,6.0218 5.6946,12.3017 12.8102,11.1639 12.976,-2.075 18.8591,-9.6697 34.5308,-44.5772 12.2341,-27.2502 13.1375,-28.9396 15.8388,-29.6175 3.0852,-0.7744 6.3878,1.9645 6.3878,5.2974 0,1.3035 -1.6385,5.6213 -3.6412,9.595 -8.7513,17.3649 -24.3588,53.1125 -24.3588,55.7919 0,4.3167 2.9529,3.7929 7.7097,-1.3677 5.8331,-6.3282 11.3559,-16.1934 21.1961,-37.8619 14.005,-30.8395 13.9665,-30.7671 16.7067,-31.4548 3.0849,-0.7743 6.3875,1.9648 6.3875,5.2975 0,1.3035 -1.6385,5.6213 -3.6412,9.595 -8.7513,17.3649 -24.3588,53.1125 -24.3588,55.7919 0,10.8408 16.9665,-10.3322 26.5031,-33.0741 4.8294,-11.5166 8.0892,-13.597 11.9863,-7.6493 1.543,2.355 1.3437,3.0715 -5.0916,18.3037 -6.6601,15.7645 -8.8001,24.3681 -6.4261,25.8354 1.928,1.1915 7.3118,-4.8367 13.0488,-14.6107 4.6984,-8.0044 5.5513,-8.944 7.8743,-8.6743 4.089,0.4747 4.0144,5.3557 -0.2181,14.2681 -6.124,12.8954 -12.9674,18.5344 -22.493,18.5344 -4.228,0 -5.44,-0.4512 -7.7301,-2.8776 l -2.716,-2.8776 -5.4703,2.8776 c -6.8286,3.592 -14.6178,3.9629 -18.534,0.8824 -2.5282,-1.9887 -2.5505,-1.9888 -6.8849,-0.022 -6.369,2.8901 -13.899,2.6869 -17.6586,-0.4766 l -2.9637,-2.4938 -4.6881,2.0738 c -10.1043,4.4696 -21.9539,3.7693 -29.1488,-1.7227 l -4.6017,-3.5126 -2.1437,1.9695 c -7.3282,6.7326 -16.6134,8.3008 -21.3142,3.6 -4.1139,-4.1139 -3.2064,-7.7564 8.7481,-35.1098 1.886,-4.3153 2.0498,-5.4521 0.9727,-6.75 -5.2237,-6.2942 -18.3868,9.7307 -28.6344,34.8596 -3.7153,9.1107 -3.7134,9.1096 -16.2593,9.342 -9.5712,0.1773 -11.2454,-0.044 -13.452,-1.7799 -3.1502,-2.478 -4.4407,-2.4752 -8.2047,0.018 -3.4214,2.2659 -9.74737,2.6044 -13.46997,0.7207 z m 11.84867,-11.2301 c 7.6726,-6.9318 20.0983,-27.5022 18.7443,-31.0307 -1.3657,-3.5589 -9.8085,-0.1172 -16.7533,6.8294 -8.0079,8.0101 -12.78077,20.2713 -9.94987,25.5608 1.6112,3.0105 3.47397,2.6923 7.95887,-1.3595 z m 109.4672,-20.4553 c 5.5612,-5.1262 8.578,-10.5115 6.8541,-12.2353 -0.9808,-0.9809 -1.9739,-0.8381 -4.8159,0.6925 -5.8733,3.1629 -12.3841,9.4328 -12.3841,11.9258 0,5.0558 4.6315,4.8843 10.3459,-0.383 z M -7.11002,638.51041 c -2.5892,-2.5892 -2.5519,-2.9638 0.9954,-9.9909 3.3666,-6.6692 5.9159,-8.6621 8.9817,-7.0214 4.0226,2.1529 4.3891,4.7081 1.4814,10.3281 -4.6909,9.0662 -7.4607,10.682 -11.4585,6.6842 z m 241.99997,0 c -2.5892,-2.5892 -2.5519,-2.9638 0.9954,-9.9909 3.3666,-6.6692 5.916,-8.6621 8.9817,-7.0214 4.0227,2.1529 4.3892,4.7081 1.4814,10.3281 -4.6908,9.0662 -7.4607,10.682 -11.4585,6.6842 z"
           id="path5232"
           inkscape:connector-curvature="0" />
      </g>
    </g>
  </g>
</svg>
